<?xml version="1.0" encoding="UTF-8"?>
<svg width="280px" height="280px" viewBox="0 0 280 280" version="1.1" xmlns="http://www.w3.org/2000/svg" xmlns:xlink="http://www.w3.org/1999/xlink">
    <!-- Generator: Sketch 3.6.1 (26313) - http://www.bohemiancoding.com/sketch -->
    <title>Untitled 3</title>
    <desc>Created with Sketch.</desc>
    <defs></defs>
    <g id="Page-1" stroke="none" stroke-width="1" fill="none" fill-rule="evenodd">
        <circle id="Oval-1" fill="#315794" cx="140" cy="140" r="140"></circle>
        <g id="helmet" transform="translate(101.000000, 37.000000)" fill="#FFFFFF">
            <g id="Page-1">
                <g id="Group">
                    <path d="M37.9,61.5 C38.2,61.3 38.6,61.1 38.9,60.9 C39.2,61.1 39.6,61.3 39.9,61.5 C40,61.5 41.4,62.5 44,64 C43.9,62.6 43.8,61.1 43.7,59.7 C43.7,59.2 43.2,58.8 42.7,58.8 C40.2,59 37.7,59 35.1,58.8 C34.6,58.8 34.1,59.2 34.1,59.7 C34,61.1 33.9,62.6 33.8,64 C36.4,62.4 37.8,61.5 37.9,61.5 L37.9,61.5 L37.9,61.5 Z" id="Shape"></path>
                    <g id="Shape" transform="translate(0.000000, 66.000000)">
                        <path d="M30.6,0.8 L30.6,0.8 C13.4,4.7 0.5,20.7 0.5,39.8 L0.5,40.5 C9,21 22.8,7.4 30.6,0.8 L30.6,0.8 L30.6,0.8 Z"></path>
                        <path d="M47.2,0.8 C55,7.3 68.9,20.9 77.3,40.5 L77.3,39.7 C77.3,20.7 64.4,4.7 47.2,0.8 C47.1,0.8 47.2,0.8 47.2,0.8 L47.2,0.8 L47.2,0.8 Z"></path>
                    </g>
                    <path d="M25.8,2.8 L34,53.1 C34.2,54 35.1,55.5 36,55.5 L41.7,55.5 C42.7,55.5 43.6,54 43.7,53.1 L51.9,3.2 C52.1,3.2 41,-1.5 25.8,2.8 L25.8,2.8 L25.8,2.8 Z" id="Shape"></path>
                    <path d="M53.8,206.6 L77.3,173.3 C74.7,155.4 76.6,142.1 75.9,133.5 C75.2,124.9 77.2,114.9 77.2,114.9 C77.1,114.7 77.1,114.5 77,114.3 C69.1,93.7 54.7,79.3 46,72 C41.7,68.4 38.9,66.6 38.9,66.6 C38.9,66.6 36,68.4 31.8,72 C23.2,79.2 8.8,93.6 0.9,114.4 C0.8,114.6 0.8,114.8 0.7,115 C0.7,115 2.8,125 2.1,133.6 C1.4,142.2 3.3,155.5 0.7,173.4 L24.2,206.7 L21,144.5 L4.7,134.7 L7.1,131.1 L12.6,122.8 L34.1,131 C34.1,131 35.5,142.1 32.1,147.5 C32,147.6 32,147.7 31.9,147.8 C31.9,147.8 32.2,153.9 39,157.4 C45.8,153.9 46.1,147.8 46.1,147.8 C46,147.7 46,147.6 45.9,147.5 C42.5,142.1 43.9,131 43.9,131 L59.8,124.9 C59.9,123.7 59.9,122.5 60,121.5 C60.3,116.7 60.4,113.6 60.4,113.6 L60.8,113.6 C60.8,113.6 61,116.7 61.2,121.5 C61.2,122.4 61.3,123.4 61.4,124.4 L65.4,122.9 L70.9,131.2 L73.3,134.8 L61.9,141.6 C61.8,143.9 61.7,146.2 61.5,148.3 C61.3,151.3 61.2,153.7 61.1,156.1 C60.9,160.9 60.7,163.7 60.7,163.7 L60.3,163.7 C60.3,163.7 60.2,160.9 59.9,156.1 C59.8,153.7 59.7,151.1 59.5,148.1 C59.4,146.4 59.3,144.8 59.2,143 L56.8,144.5 L53.8,206.6 L53.8,206.6 L53.8,206.6 Z" id="Shape"></path>
                </g>
            </g>
        </g>
    </g>
</svg>